<?xml version="1.0" encoding="UTF-8" standalone="no"?>
<svg xmlns="http://www.w3.org/2000/svg" version="1.1" viewBox="0 0 128 64">
 <g transform="translate(0 -35.35)">
  <g transform="translate(112 35.35)">
   <g>
    <circle cx="8.062" transform="matrix(1.008 0 0 1.008 -.1260 -.06299)" cy="8" r="7.938" fill="#c0c0c0"/>
    <path stroke-linejoin="round" d="m4 4c-1.105 0-2 0.895-2 2 0 0.365 0.11 0.705 0.281 1h3.438c0.171-0.295 0.281-0.635 0.281-1 0-1.105-0.895-2-2-2z" stroke="#404040" stroke-linecap="round" fill="#fff"/>
    <path stroke-linejoin="round" d="m12 4c-1.105 0-2 0.8954-2 2 0 0.365 0.1105 0.7055 0.2812 1h3.438c0.17-0.295 0.28-0.635 0.28-1 0-1.105-0.9-2-2-2z" stroke="#404040" stroke-linecap="round" fill="#fff"/>
    <circle cx="5" cy="5" r="1" fill="#404040"/>
    <circle cx="5" transform="translate(8)" cy="5" r="1" fill="#404040"/>
    <path d="m2.031 9c-0.016 0.165-0.031 0.331-0.031 0.5 0 3.04 2.686 5.5 6 5.5 3.31 0 6-2.46 6-5.5 0-0.169-0.02-0.335-0.03-0.5z" fill-rule="evenodd" fill="#ff8181"/>
   </g>
   <path d="m5.101 14.23c0.341-1.29 1.51-2.23 2.899-2.23s2.558 0.9441 2.899 2.226" stroke="#602020" stroke-width=".9231" fill="none"/>
   <path stroke-linejoin="round" d="m2.031 9c-0.016 0.165-0.031 0.331-0.031 0.5 0 3.04 2.686 5.5 6 5.5 3.31 0 6-2.46 6-5.5 0-0.169-0.02-0.335-0.03-0.5z" stroke="#404040" stroke-linecap="round" fill="none"/>
  </g>
  <g fill="#e0d0a0" transform="translate(80 51.42)">
   <circle cx="8.062" transform="matrix(1.008 0 0 1 -.1260 0)" cy="8" r="7.938"/>
   <g stroke-linejoin="round" stroke="#61501f" stroke-linecap="round">
    <path d="m4 11c0 2.208 1.792 4 4 4s4-1.792 4-4z"/>
    <path d="m13.5 8c0-0.828-0.67-1.5-1.5-1.5s-1.5 0.672-1.5 1.5"/>
    <path d="m5.5 8c0-0.828-0.672-1.5-1.5-1.5s-1.5 0.672-1.5 1.5"/>
   </g>
   <path d="m0 8v-8l4 2z"/>
   <path d="m16 8v-8l-4 2z"/>
  </g>
  <g transform="translate(5.5e-7 67.42)">
   <g>
    <circle cx="8.062" transform="matrix(1.008 0 0 1 -.1260 0)" cy="8" r="7.938" fill="#c0c0c0"/>
    <circle cx="4" transform="matrix(.5 0 0 .5 2 4)" cy="8" r="2" fill="#404040"/>
    <circle cx="4" transform="matrix(.5 0 0 .5 10 4)" cy="8" r="2" fill="#404040"/>
   </g>
   <path stroke-linejoin="round" d="m5 13c0-1.66 1.344-3 3-3s3 1.34 3 3z" stroke="#404040" stroke-linecap="round" fill="none"/>
  </g>
  <g transform="translate(32 67.42)">
   <g>
    <circle cx="8.062" transform="matrix(1.008 0 0 1 -.1260 0)" cy="8" r="7.938" fill="#c0c0c0"/>
    <circle cx="4" transform="matrix(.5 0 0 .5 2 4)" cy="8" r="2" fill="#404040"/>
    <circle cx="4" transform="matrix(.5 0 0 .5 10 4)" cy="8" r="2" fill="#404040"/>
    <path stroke-linejoin="round" d="m10.17 2.172c-0.779 0.78-0.779 2.047 0 2.828 0.78 0.781 2.05 0.781 2.83 0s0.78-2.048 0-2.828l-1.41-1.415z" stroke="#008080" stroke-linecap="round" fill="#3fbfc1"/>
   </g>
   <path stroke-linejoin="round" d="m12 12h-8" stroke="#404040" stroke-linecap="round" fill="none"/>
  </g>
  <g transform="translate(96 83.42)">
   <circle cx="8.062" transform="matrix(1.008 0 0 1 -.1260 0)" cy="8" r="7.938" fill="#c0c0c0"/>
   <g stroke="#404040" stroke-linecap="round" fill="none">
    <path d="m12 10-8-4" stroke-width="1px"/>
    <path d="m4 10 8-4" stroke-width="1px"/>
    <circle stroke-linejoin="round" cx="8" cy="12" r="2"/>
   </g>
  </g>
  <g transform="translate(5.5e-7 51.29)">
   <circle cx="8.062" transform="matrix(1.008 0 0 1 -.1260 0)" cy="8" r="7.938" fill="#c0c0c0"/>
   <circle cx="4" transform="matrix(.5 0 0 .5 2 4)" cy="8" r="2" fill="#404040"/>
   <circle cx="4" transform="matrix(.5 0 0 .5 10 4)" cy="8" r="2" fill="#404040"/>
   <path stroke-linejoin="round" d="m8 11v2c0 1.104 0.896 2 2 2s2-0.896 2-2v-2h-2zm-4 0h8" stroke="#404040" stroke-linecap="round" fill="#e0a0a0"/>
  </g>
  <g transform="translate(80 35.29)">
   <g>
    <circle cx="8.062" transform="matrix(1.008 0 0 1 -.1260 0)" cy="8" r="7.938" fill="#c0c0c0"/>
    <circle cx="4" transform="matrix(.5 0 0 .5 2 4)" cy="8" r="2" fill="#404040"/>
    <circle cx="4" transform="matrix(.5 0 0 .5 10 4)" cy="8" r="2" fill="#404040"/>
   </g>
   <path stroke-linejoin="round" d="m8 14v0c1.537 0 2.938-0.5801 4-1.531" stroke="#404040" stroke-linecap="round" fill="none"/>
  </g>
  <g transform="translate(5.5e-7 35.29)">
   <g>
    <circle cx="8.062" transform="matrix(1.008 0 0 1 -.1260 0)" cy="8" r="7.938" fill="#c0c0c0"/>
    <circle cx="4" transform="matrix(.5 0 0 .5 2 4)" cy="8" r="2" fill="#404040"/>
    <circle cx="4" transform="matrix(.5 0 0 .5 10 4)" cy="8" r="2" fill="#404040"/>
   </g>
   <path stroke-linejoin="round" d="m4 12.47c1.062 0.95 2.463 1.53 4 1.53s2.938-0.5801 4-1.531" stroke="#404040" stroke-linecap="round" fill="none"/>
  </g>
  <g transform="translate(16 67.29)">
   <g>
    <circle cx="8.062" transform="matrix(1.008 0 0 1 -.1260 0)" cy="8" r="7.938" fill="#c0c0c0"/>
    <path d="m12 9.414 1.41-1.414c0.3905-0.3905 0.3905-1.024 0-1.414-0.3905-0.3905-1.024-0.3905-1.414 0-0.3905-0.3905-1.024-0.3905-1.414 0-0.3905 0.3905-0.3905 1.024 0 1.414z" fill="#c04040"/>
    <path d="m4 9.414 1.414-1.414c0.3905-0.3905 0.3905-1.024 0-1.414-0.3905-0.3905-1.024-0.3905-1.414 0-0.3905-0.3905-1.024-0.3905-1.414 0-0.3905 0.3905-0.3905 1.024 0 1.414z" fill="#c04040"/>
   </g>
   <path stroke-linejoin="round" d="m4 11c0 2.208 1.792 4 4 4s4-1.792 4-4z" stroke="#404040" stroke-linecap="round" fill="none"/>
  </g>
  <g transform="translate(64 51.42)">
   <g fill="#e0d0a0">
    <circle cx="8.062" transform="matrix(1.008 0 0 1 -.1260 0)" cy="8" r="7.938"/>
    <path d="m0 8v-8l4 2z"/>
    <path d="m16 8v-8l-4 2z"/>
   </g>
   <circle cx="4" transform="matrix(.5 0 0 .5 2 4)" cy="8" r="2" fill="#61501f"/>
   <circle cx="4" transform="matrix(.5 0 0 .5 10 4)" cy="8" r="2" fill="#61501f"/>
   <path stroke-linejoin="round" d="m8 12v0c0.5523 0 1 0.4477 1 1v0c0 0.5523-0.4477 1-1 1v0" stroke="#61501f" stroke-linecap="round" fill="none"/>
   <path stroke-linejoin="round" d="m8 10v0c0.5523 0 1 0.4477 1 1v0c0 0.5523-0.4477 1-1 1v0" stroke="#61501f" stroke-linecap="round" fill="none"/>
   <path d="m10 13h2c0.5523 0 1-0.4477 1-1s-0.4477-1-1-1c0-0.5523-0.4477-1-1-1s-1 0.4477-1 1z" fill="#c04040"/>
  </g>
  <g transform="translate(16 35.29)">
   <g>
    <circle cx="8.062" transform="matrix(1.008 0 0 1 -.1260 0)" cy="8" r="7.938" fill="#c0c0c0"/>
    <circle cx="4" transform="matrix(.5 0 0 .5 2 4)" cy="8" r="2" fill="#404040"/>
    <circle cx="4" transform="matrix(.5 0 0 .5 10 4)" cy="8" r="2" fill="#404040"/>
   </g>
   <path stroke-linejoin="round" d="m12 12h-8" stroke="#404040" stroke-linecap="round" fill="none"/>
  </g>
  <g transform="translate(32 35.29)">
   <g>
    <circle cx="8.062" transform="matrix(1.008 0 0 1 -.1260 0)" cy="8" r="7.938" fill="#c0c0c0"/>
    <circle cx="4" transform="matrix(.5 0 0 .5 2 4)" cy="8" r="2" fill="#404040"/>
    <circle cx="4" transform="matrix(.5 0 0 .5 10 4)" cy="8" r="2" fill="#404040"/>
   </g>
   <path stroke-linejoin="round" d="m4 13.53c1.062-0.95 2.463-1.53 4-1.53s2.938 0.5801 4 1.531" stroke="#404040" stroke-linecap="round" fill="none"/>
  </g>
  <g transform="translate(48 51.42)">
   <g>
    <circle cx="8.062" transform="matrix(1.008 0 0 1 -.1260 0)" cy="8" r="7.938" fill="#c0c0c0"/>
    <circle cx="4" transform="matrix(.5 0 0 .5 2 4)" cy="8" r="2" fill="#404040"/>
    <circle cx="4" transform="matrix(.5 0 0 .5 10 4)" cy="8" r="2" fill="#404040"/>
   </g>
   <path stroke-linejoin="round" d="m4 13s2 1 4 1 4-1 4-1 0-2-2-2-2 3-2 3" fill-rule="evenodd" stroke="#404040" stroke-linecap="round" stroke-width="1px" fill="#e0a0a0"/>
  </g>
  <g transform="translate(96 67.42)">
   <circle cx="8.062" transform="matrix(1.008 0 0 1 -.1260 0)" cy="8" r="7.938" fill="#c0c0c0"/>
   <circle cx="4" transform="matrix(.5 0 0 .5 10 4)" cy="8" r="2" fill="#404040"/>
   <path stroke-linejoin="round" d="m4 12.47c1.062 0.95 2.463 1.53 4 1.53s2.938-0.5801 4-1.531" stroke="#404040" stroke-linecap="round" fill="none"/>
   <path d="m2.5 8h3" stroke="#404040" stroke-linecap="round" stroke-width="1px" fill="none"/>
  </g>
  <g transform="translate(16 51.42)">
   <g>
    <circle cx="8.062" transform="matrix(1.008 0 0 1 -.1260 0)" cy="8" r="7.938" fill="#c0c0c0"/>
    <circle cx="4" transform="matrix(.5 0 0 .5 2 4)" cy="8" r="2" fill="#404040"/>
    <circle cx="4" transform="matrix(.5 0 0 .5 10 4)" cy="8" r="2" fill="#404040"/>
   </g>
   <path stroke-linejoin="round" d="m4 11c0 2.208 1.792 4 4 4s4-1.792 4-4z" stroke="#404040" stroke-linecap="round" fill="none"/>
  </g>
  <g transform="translate(96 51.42)">
   <g fill="#e0d0a0">
    <circle cx="8.062" transform="matrix(1.008 0 0 1 -.1260 0)" cy="8" r="7.938"/>
    <path d="m0 8v-8l4 2z"/>
    <path d="m16 8v-8l-4 2z"/>
   </g>
   <g>
    <path style="color:#000000" d="m3 8v5c0 0.552 0.448 1 1 1s1-0.448 1-1v-5z" fill="#40c0c0"/>
    <circle cx="4" transform="matrix(.5 0 0 .5 2 4)" cy="8" r="2" fill="#61501f"/>
    <path style="color:#000000" d="m11 8v5c0 0.552 0.448 1 1 1s1-0.448 1-1v-5z" fill="#40c0c0"/>
    <circle cx="4" transform="matrix(.5 0 0 .5 10 4)" cy="8" r="2" fill="#61501f"/>
   </g>
   <path stroke-linejoin="round" d="m4 13.53c1.062-0.95 2.463-1.53 4-1.53s2.938 0.5801 4 1.531" stroke="#61501f" stroke-linecap="round" fill="none"/>
  </g>
  <g transform="translate(64 35.42)">
   <circle cx="8.062" transform="matrix(1.008 0 0 1 -.1260 0)" cy="8" r="7.938" fill="#c0c0c0"/>
   <path stroke-linejoin="round" d="m12 12c-0.5318 0.4796-1.228 0.7812-2 0.7812s-1.468-0.3-2-0.78-1.228-0.78-2-0.78-1.468 0.3-2 0.78" stroke="#404040" stroke-linecap="round" fill="none"/>
   <circle cx="8" transform="translate(-4,4)" cy="4" r="1" fill="#404040"/>
   <circle cx="8" transform="translate(4,4)" cy="4" r="1" fill="#404040"/>
  </g>
  <g transform="translate(48 35.42)">
   <g>
    <circle cx="8.062" transform="matrix(1.008 0 0 1 -.1260 0)" cy="8" r="7.938" fill="#c0c0c0"/>
    <circle cx="4" transform="matrix(.5 0 0 .5 2 4)" cy="8" r="2" fill="#404040"/>
    <circle cx="4" transform="matrix(.5 0 0 .5 10 4)" cy="8" r="2" fill="#404040"/>
   </g>
   <path stroke-linejoin="round" d="m12 11-8 2" stroke="#404040" stroke-linecap="round" fill="none"/>
  </g>
  <g transform="translate(80 67.42)">
   <circle cx="8.062" transform="matrix(1.008 0 0 1 -.1260 0)" cy="8" r="7.938" fill="#c0c0c0"/>
   <circle cx="4" transform="translate(8)" cy="8" r="2" fill="#404040"/>
   <path stroke-linejoin="round" d="m4 12.47c1.062 0.95 2.463 1.53 4 1.53s2.938-0.5801 4-1.531" stroke="#404040" stroke-linecap="round" fill="none"/>
   <circle cx="4" cy="8" r="2" fill="#404040"/>
   <path d="m5.113 8h5.887" stroke="#404040" fill="none"/>
  </g>
  <g transform="translate(48 67.29)">
   <g>
    <circle cx="8.062" transform="matrix(1.008 0 0 1 -.1260 0)" cy="8" r="7.938" fill="#c0c0c0"/>
    <path style="color:#000000" d="m3 7v6c0 0.552 0.448 1 1 1 0.3894 0 0.7099-0.2374 0.875-0.5625-0.528-0.68-0.875-1.51-0.875-2.44h1v-4z" fill="#40c0c0"/>
    <path style="color:#000000" d="m11 7v4h1c0 0.9251-0.3471 1.76-0.875 2.438 0.17 0.32 0.49 0.56 0.88 0.56 0.552 0 1-0.448 1-1v-6z" fill="#40c0c0"/>
   </g>
   <g stroke-linejoin="round" stroke="#404040" stroke-linecap="round" fill="none">
    <path d="m4 11c0 2.208 1.792 4 4 4s4-1.792 4-4z"/>
    <path d="m13.5 8c0-0.828-0.67-1.5-1.5-1.5s-1.5 0.672-1.5 1.5"/>
    <path d="m5.5 8c0-0.828-0.672-1.5-1.5-1.5s-1.5 0.672-1.5 1.5"/>
   </g>
  </g>
  <g transform="translate(112 83.35)">
   <circle cx="5" transform="matrix(1.333 0 0 .6667 -2.667 2.667)" cy="8" r="3" fill="#c13f3f"/>
   <circle cx="5" transform="matrix(-.9428 -.9428 .4714 -.4714 6.114 13.66)" cy="8" r="3" fill="#c1a23f"/>
   <circle cx="5" transform="matrix(0 1.333 -.6667 0 13.33 -2.667)" cy="8" r="3" fill="#80c13f"/>
   <circle cx="5" transform="matrix(-.9428 .9428 -.4714 -.4714 19.31 4.229)" cy="8" r="3" fill="#3fc162"/>
   <circle cx="5" transform="matrix(1.333 0 0 .6667 5.333 2.667)" cy="8" r="3" fill="#3fbfc1"/>
   <circle cx="5" transform="matrix(-.9428 -.9428 .4714 -.4714 11.77 19.31)" cy="8" r="3" fill="#3f5ec1"/>
   <circle cx="5" transform="matrix(0 1.333 -.6667 0 13.33 5.333)" cy="8" r="3" fill="#823fc1"/>
   <circle cx="5" transform="matrix(-.9428 .9428 -.4714 -.4714 13.66 9.886)" cy="8" r="3" fill="#c13f9e"/>
   <path d="m0 8c0 1.104 1.792 2 4 2s4-0.896 4-2z" fill="#c13f3f"/>
   <circle cx="8" cy="8" r="4" fill="#c0c0c0"/>
   <circle cx="6" transform="translate(0 .0625)" cy="8" r="1" fill="#404040"/>
   <circle cx="6" transform="translate(4 .0625)" cy="8" r="1" fill="#404040"/>
  </g>
  <g transform="translate(112 51.42)">
   <g fill="#e0d0a0">
    <circle cx="8.062" transform="matrix(1.008 0 0 1 -.1260 0)" cy="8" r="7.938"/>
    <path d="m0 8v-8l4 2z"/>
    <path d="m16 8v-8l-4 2z"/>
   </g>
   <circle cx="4" transform="matrix(.5 0 0 .5 2 4)" cy="8" r="2" fill="#61501f"/>
   <circle cx="4" transform="matrix(.5 0 0 .5 10 4)" cy="8" r="2" fill="#61501f"/>
   <path stroke-linejoin="round" d="m4 12c1.062 0.9511 2.463 1.531 4 1.531s2.938-0.5801 4-1.531" stroke="#61501f" stroke-linecap="round" fill="none"/>
   <path stroke-linejoin="round" d="m4 3 4 2 4-2" stroke="#61501f" stroke-linecap="round" stroke-width="1px" fill="none"/>
  </g>
  <g transform="translate(64 67.42)">
   <g>
    <circle cx="8.062" transform="matrix(1.008 0 0 1 -.1260 0)" cy="8" r="7.938" fill="#c0c0c0"/>
    <circle cx="4" transform="matrix(.5 0 0 .5 2 4)" cy="8" r="2" fill="#404040"/>
    <circle cx="4" transform="matrix(.5 0 0 .5 10 4)" cy="8" r="2" fill="#404040"/>
   </g>
   <path stroke-linejoin="round" d="m6 10c-1.105 0-2 0.8954-2 2s0.8954 2 2 2 2-0.8954 2-2" stroke="#404040" stroke-linecap="round" fill="none"/>
   <path stroke-linejoin="round" d="m8 12c0 1.105 0.8954 2 2 2s2-0.8954 2-2-0.8954-2-2-2" stroke="#404040" stroke-linecap="round" fill="none"/>
  </g>
  <g transform="translate(96 35.42)">
   <g>
    <circle cx="8.062" transform="matrix(1.008 0 0 1 -.1260 0)" cy="8" r="7.938" fill="#c0c0c0"/>
    <circle cx="4" transform="matrix(.5 0 0 .5 2 4)" cy="8" r="2" fill="#404040"/>
    <circle cx="4" transform="matrix(.5 0 0 .5 10 4)" cy="8" r="2" fill="#404040"/>
   </g>
   <path stroke-linejoin="round" d="m4 13.53c1.062-0.95 2.463-1.53 4-1.53s2.938 0.5801 4 1.531" stroke="#404040" stroke-linecap="round" fill="none"/>
   <path stroke-linejoin="round" d="m4 3 4 2 4-2" stroke="#404040" stroke-linecap="round" stroke-width="1px" fill="none"/>
  </g>
  <g transform="translate(112 67.29)">
   <circle cx="8.062" transform="matrix(1.008 0 0 1 -.1260 0)" cy="8" r="7.938" fill="#c0c0c0"/>
   <g stroke-width="1px" stroke="#404040" stroke-linecap="round" fill="none">
    <path stroke-linejoin="round" d="m11 8h2v1"/>
    <path d="m6 12h4"/>
    <path stroke-linejoin="round" d="m3 8h2v1"/>
   </g>
  </g>
  <g transform="translate(16 83.29)">
   <circle cx="8.062" transform="matrix(1.008 0 0 1 -.1260 0)" cy="8" r="7.938" fill="#c0c0c0"/>
   <path stroke-linejoin="round" d="m13.5 8c0-0.828-0.67-1.5-1.5-1.5s-1.5 0.672-1.5 1.5" stroke="#404040" stroke-linecap="round" fill="none"/>
   <path stroke-linejoin="round" d="m5.5 8c0-0.828-0.672-1.5-1.5-1.5s-1.5 0.672-1.5 1.5" stroke="#404040" stroke-linecap="round" fill="none"/>
  </g>
  <g transform="translate(5.5e-7 83.42)">
   <circle cx="8.062" transform="matrix(1.008 0 0 1 -.1260 0)" cy="8" r="7.938" fill="#c0c0c0"/>
   <circle style="color:#000000" cx="8" transform="matrix(1 0 0 .5 0 6)" cy="8" r="4" fill="#e0a0a0"/>
   <circle cx="4" transform="matrix(.5 0 0 .5 2 4)" cy="8" r="2" fill="#404040"/>
   <circle cx="4" transform="matrix(.5 0 0 .5 10 4)" cy="8" r="2" fill="#404040"/>
   <path stroke-linejoin="round" d="m6 12h4" stroke="#404040" stroke-linecap="round" fill="#e0a0a0"/>
  </g>
  <g transform="translate(32 51.42)">
   <g>
    <circle cx="8.062" transform="matrix(1.008 0 0 1 -.1260 0)" cy="8" r="7.938" fill="#c0c0c0"/>
    <circle cx="4" transform="matrix(.5 0 0 .5 2 4)" cy="8" r="2" fill="#404040"/>
    <circle cx="4" transform="matrix(.5 0 0 .5 10 4)" cy="8" r="2" fill="#404040"/>
   </g>
   <path stroke-linejoin="round" d="m12 12s-2-1-4-1-4 1-4 1 0 2 2 2 2-3 2-3" fill-rule="evenodd" stroke="#404040" stroke-linecap="round" stroke-width="1px" fill="#e0a0a0"/>
  </g>
  <g transform="translate(32 83.42)">
   <g>
    <circle cx="8.062" transform="matrix(1.008 0 0 1 -.1260 0)" cy="8" r="7.938" fill="#c0c0c0"/>
    <circle cx="4" transform="matrix(.5 0 0 .5 2 4)" cy="8" r="2" fill="#404040"/>
    <circle cx="4" transform="matrix(.5 0 0 .5 10 4)" cy="8" r="2" fill="#404040"/>
   </g>
   <circle stroke-linejoin="round" cx="8" stroke-linecap="round" stroke="#404040" cy="12" r="2" fill="none"/>
  </g>
  <g transform="translate(48 83.42)">
   <g>
    <circle cx="8.062" transform="matrix(1.008 0 0 1 -.1260 0)" cy="8" r="7.938" fill="#c0c0c0"/>
    <circle cx="4" transform="matrix(.5 0 0 .5 2 4)" cy="8" r="2" fill="#404040"/>
    <circle cx="4" transform="matrix(.5 0 0 .5 10 4)" cy="8" r="2" fill="#404040"/>
   </g>
   <path stroke-linejoin="round" d="m4 5 4-2 4 2" stroke="#404040" stroke-linecap="round" stroke-width="1px" fill="none"/>
   <circle stroke-linejoin="round" cx="8" stroke-linecap="round" stroke="#404040" cy="12" r="2" fill="none"/>
  </g>
  <g transform="translate(64 83.42)">
   <g>
    <circle cx="8.062" transform="matrix(1.008 0 0 1 -.1260 0)" cy="8" r="7.938" fill="#c0c0c0"/>
    <circle cx="4" transform="matrix(.5 0 0 .5 2 4)" cy="8" r="2" fill="#404040"/>
    <circle cx="4" transform="matrix(.5 0 0 .5 10 4)" cy="8" r="2" fill="#404040"/>
   </g>
   <path stroke-linejoin="round" d="m4 3 4 2 4-2" stroke="#404040" stroke-linecap="round" stroke-width="1px" fill="none"/>
   <circle stroke-linejoin="round" cx="8" stroke-linecap="round" stroke="#404040" cy="12" r="2" fill="none"/>
  </g>
  <g transform="translate(80 83.42)">
   <circle cx="8.062" transform="matrix(1.008 0 0 1 -.1260 0)" cy="8" r="7.938" fill="#c0c0c0"/>
   <g stroke-width="1px" stroke="#404040" stroke-linecap="round" fill="none">
    <path stroke-linejoin="round" d="m3 6 2 2-2 2"/>
    <path stroke-linejoin="round" d="m11 6 2 2-2 2"/>
    <path d="m6 12h4"/>
   </g>
  </g>
 </g>
</svg>
