<svg xmlns="http://www.w3.org/2000/svg" viewBox="-16 -16 32 32"><circle cx="0" cy="0" r="0.5" fill="#000"></circle><circle cx="-0.6754902942615232" cy="-0.7373688780783204" r="0.5" fill="#000"></circle><circle cx="1.408798596434362" cy="0.12363864559502401" r="0.5" fill="#000"></circle><circle cx="-1.3745568221620512" cy="1.0538470205147248" r="0.5" fill="#000"></circle><circle cx="0.3483639007586306" cy="-1.969426970630856" r="0.5" fill="#000"></circle><circle cx="1.2001604111035442" cy="1.8866941955758947" r="0.5" fill="#000"></circle><circle cx="-2.365509169134561" cy="-0.6358980820385598" r="0.5" fill="#000"></circle><circle cx="2.3479678451778483" cy="-1.2194453649142682" r="0.5" fill="#000"></circle><circle cx="-0.9702597684001261" cy="2.656801833374882" r="0.5" fill="#000"></circle><circle cx="-1.1446692254248163" cy="-2.773036668413411" r="0.5" fill="#000"></circle><circle cx="2.864183256151478" cy="1.3403187214918393" r="0.5" fill="#000"></circle><circle cx="-3.164604375480839" cy="0.9926122841711797" r="0.5" fill="#000"></circle><circle cx="1.7369268119895809" cy="-2.997179549141444" r="0.5" fill="#000"></circle><circle cx="0.7741819112466343" cy="3.5214545813198423" r="0.5" fill="#000"></circle><circle cx="-3.060909334874765" cy="-2.1519372768918066" r="0.5" fill="#000"></circle><circle cx="3.8408690473785896" cy="-0.49771976140101815" r="0.5" fill="#000"></circle><circle cx="-2.577787931535343" cy="3.058595981824134" r="0.5" fill="#000"></circle><circle cx="-0.17035776163268598" cy="-4.119584716091113" r="0.5" fill="#000"></circle><circle cx="2.9926736383256176" cy="3.0073085133505852" r="0.5" fill="#000"></circle><circle cx="-4.354246278762471" cy="-0.20134384491010626" r="0.5" fill="#000"></circle><circle cx="3.4336330367699146" cy="-2.8653384038891843" r="0.5" fill="#000"></circle><circle cx="-0.611072665105882" cy="4.541650602805151" r="0.5" fill="#000"></circle><circle cx="-2.6788458324320463" cy="-3.850166880287328" r="0.5" fill="#000"></circle><circle cx="4.678893283324133" cy="1.0525956694117231" r="0.5" fill="#000"></circle><circle cx="-4.2505844611829655" cy="2.4356789070708627" r="0.5" fill="#000"></circle><circle cx="1.5196749017245068" cy="-4.763463885983457" r="0.5" fill="#000"></circle><circle cx="2.138643659524645" cy="4.628844704413297" r="0.5" fill="#000"></circle><circle cx="-4.793311454703516" cy="-2.0060322276095346" r="0.5" fill="#000"></circle><circle cx="4.979216959172704" cy="-1.7909211243064085" r="0.5" fill="#000"></circle><circle cx="-2.5053443151359054" cy="4.766891005950964" r="0.5" fill="#000"></circle><circle cx="-1.3960910681067185" cy="-5.296312842870278" r="0.5" fill="#000"></circle><circle cx="4.683196639454813" cy="3.0112570857034333" r="0.5" fill="#000"></circle><circle cx="-5.575121056086079" cy="0.9581363211911149" r="0.5" fill="#000"></circle><circle cx="3.5174130896205495" cy="-4.541784358263393" r="0.5" fill="#000"></circle><circle cx="0.48143304472116594" cy="5.811043126965288" r="0.5" fill="#000"></circle><circle cx="-4.3427863685362444" cy="-4.0174875926698" r="0.5" fill="#000"></circle><circle cx="5.999928606811001" cy="0.029269662980605765" r="0.5" fill="#000"></circle><circle cx="-4.505230508060321" cy="4.0869179180945805" r="0.5" fill="#000"></circle><circle cx="0.5688785256988329" cy="-6.138108603063221" r="0.5" fill="#000"></circle><circle cx="3.7754773439844755" cy="4.974512119299734" r="0.5" fill="#000"></circle><circle cx="-6.222426783735123" cy="-1.1319915728731311" r="0.5" fill="#000"></circle><circle cx="5.419371045745881" cy="-3.4103397878409707" r="0.5" fill="#000"></circle><circle cx="-1.7129391018638898" cy="6.250267164954289" r="0.5" fill="#000"></circle><circle cx="-2.993944927096958" cy="-5.834063230160467" r="0.5" fill="#000"></circle><circle cx="6.219578127389191" cy="2.305829117107764" r="0.5" fill="#000"></circle><circle cx="-6.213110947713283" cy="2.52927901810088" r="0.5" fill="#000"></circle><circle cx="2.9045963967663933" cy="-6.128892214086628" r="0.5" fill="#000"></circle><circle cx="2.0198515301227795" cy="6.551350990159256" r="0.5" fill="#000"></circle><circle cx="-5.9773413514111455" cy="-3.5030544341631877" r="0.5" fill="#000"></circle><circle cx="6.843981292276896" cy="-1.4696666530080436" r="0.5" fill="#000"></circle><circle cx="-4.094949563715407" cy="5.764667212478705" r="0.5" fill="#000"></circle><circle cx="-0.8831899773881956" cy="-7.086605355446361" r="0.5" fill="#000"></circle><circle cx="5.491226512508157" cy="4.674016622598544" r="0.5" fill="#000"></circle><circle cx="-7.275273895094965" cy="0.26531066949849397" r="0.5" fill="#000"></circle><circle cx="5.234035528384374" cy="-5.157991090299605" r="0.5" fill="#000"></circle><circle cx="-0.37870051059661375" cy="7.406523200751745" r="0.5" fill="#000"></circle><circle cx="-4.766542691058995" cy="-5.76888817488362" r="0.5" fill="#000"></circle><circle cx="7.477409753594456" cy="1.0432369706114235" r="0.5" fill="#000"></circle><circle cx="-6.2726150669778855" cy="4.319062423897347" r="0.5" fill="#000"></circle><circle cx="1.722405423041743" cy="-7.4855406991530264" r="0.5" fill="#000"></circle><circle cx="3.8183149230789932" cy="6.73947113267742" r="0.5" fill="#000"></circle><circle cx="-7.429099823885332" cy="-2.4100779669435832" r="0.5" fill="#000"></circle><circle cx="7.163980168648566" cy="-3.2676272956397683" r="0.5" fill="#000"></circle><circle cx="-3.0999466599113763" cy="7.306868734670434" r="0.5" fill="#000"></circle><circle cx="-2.6708629894367193" cy="-7.540987395007178" r="0.5" fill="#000"></circle><circle cx="7.118242990451871" cy="3.78558010467125" r="0.5" fill="#000"></circle><circle cx="-7.865709616967466" cy="2.0323907649725057" r="0.5" fill="#000"></circle><circle cx="4.460481556993537" cy="-6.863242985624254" r="0.5" fill="#000"></circle><circle cx="1.357049001237656" cy="8.133782515425397" r="0.5" fill="#000"></circle><circle cx="-6.5425194353695995" cy="-5.118148047664414" r="0.5" fill="#000"></circle><circle cx="8.341304615919432" cy="-0.6501056102212782" r="0.5" fill="#000"></circle><circle cx="-5.75213000120243" cy="6.157353364008512" r="0.5" fill="#000"></circle><circle cx="0.08278612363390835" cy="-8.48487751577674" r="0.5" fill="#000"></circle><circle cx="5.709650548338827" cy="6.356090828162709" r="0.5" fill="#000"></circle><circle cx="-8.561641982583655" cy="-0.8356354241300527" r="0.5" fill="#000"></circle><circle cx="6.923865966263536" cy="-5.201930418721259" r="0.5" fill="#000"></circle><circle cx="-1.6021652338898025" cy="8.569309573315394" r="0.5" fill="#000"></circle><circle cx="-4.637309471034746" cy="-7.449520848339942" r="0.5" fill="#000"></circle><circle cx="8.50618946235185" cy="2.375866332640445" r="0.5" fill="#000"></circle><circle cx="-7.927407282270898" cy="4.0194792922713685" r="0.5" fill="#000"></circle><circle cx="3.150053912888649" cy="-8.371210207962463" r="0.5" fill="#000"></circle><circle cx="3.3526793511376862" cy="8.35221773952613" r="0.5" fill="#000"></circle><circle cx="-8.163936230406215" cy="-3.9179261383876023" r="0.5" fill="#000"></circle><circle cx="8.719037064765361" cy="-2.6416647522438983" r="0.5" fill="#000"></circle><circle cx="-4.672624190684244" cy="7.884578820243501" r="0.5" fill="#000"></circle><circle cx="-1.8916691979024407" cy="-9.023391138907098" r="0.5" fill="#000"></circle><circle cx="7.534001542455372" cy="5.407293293162493" r="0.5" fill="#000"></circle><circle cx="-9.261292052072895" cy="1.1083634449996331" r="0.5" fill="#000"></circle><circle cx="6.115144190458909" cy="-7.113719950201627" r="0.5" fill="#000"></circle><circle cx="0.2978095852831606" cy="9.429279370710864" r="0.5" fill="#000"></circle><circle cx="-6.625895571041172" cy="-6.7895145541973" r="0.5" fill="#000"></circle><circle cx="9.524457114680864" cy="0.5335884843257734" r="0.5" fill="#000"></circle><circle cx="-7.423929783467005" cy="6.073324177923612" r="0.5" fill="#000"></circle><circle cx="1.3791379996359476" cy="-9.544526094990792" r="0.5" fill="#000"></circle><circle cx="5.459418406766339" cy="8.012162670581578" r="0.5" fill="#000"></circle><circle cx="-9.487811300876734" cy="-2.2319132418075105" r="0.5" fill="#000"></circle><circle cx="8.548291409367724" cy="-4.7881848314919875" r="0.5" fill="#000"></circle><circle cx="-3.0848139629547684" cy="9.353284065715062" r="0.5" fill="#000"></circle><circle cx="-4.064195655829272" cy="-9.02675543432625" r="0.5" fill="#000"></circle><circle cx="9.140578784542342" cy="3.930625838664174" r="0.5" fill="#000"></circle><circle cx="-9.442408594681673" cy="3.2925552282508" r="0.5" fill="#000"></circle><circle cx="4.762082441174355" cy="-8.850004001324457" r="0.5" fill="#000"></circle><circle cx="2.478861632063633" cy="9.790569187186351" r="0.5" fill="#000"></circle><circle cx="-8.482547731277302" cy="-5.571928210826328" r="0.5" fill="#000"></circle><circle cx="10.067066395606929" cy="-1.6291636463049668" r="0.5" fill="#000"></circle><circle cx="-6.352981891874536" cy="8.039876931988092" r="0.5" fill="#000"></circle><circle cx="-0.7499134143167733" cy="-10.268282712850663" r="0.5" fill="#000"></circle><circle cx="7.524331086537588" cy="7.098199891533353" r="0.5" fill="#000"></circle><circle cx="-10.391191953393708" cy="-0.1520848043884247" r="0.5" fill="#000"></circle><circle cx="7.800739018569254" cy="-6.93890991180684" r="0.5" fill="#000"></circle><circle cx="-1.0697293878723309" cy="10.433392498929688" r="0.5" fill="#000"></circle><circle cx="-6.287255255202686" cy="-8.45401805982967" r="0.5" fill="#000"></circle><circle cx="10.393135458549109" cy="1.9956791676642844" r="0.5" fill="#000"></circle><circle cx="-9.051777659678438" cy="5.573627292862912" r="0.5" fill="#000"></circle><circle cx="2.922413834655977" cy="-10.269347466076477" r="0.5" fill="#000"></circle><circle cx="4.802875191492738" cy="9.588137978509883" r="0.5" fill="#000"></circle><circle cx="-10.06164788103201" cy="-3.8422964380854343" r="0.5" fill="#000"></circle><circle cx="10.057653622238174" cy="-3.980402443859082" r="0.5" fill="#000"></circle><circle cx="-4.7476374598807" cy="9.770360205721053" r="0.5" fill="#000"></circle><circle cx="-3.1121271344864807" cy="-10.45536535462979" r="0.5" fill="#000"></circle><circle cx="9.396517578818015" cy="5.630759930148328" r="0.5" fill="#000"></circle><circle cx="-10.77684812868344" cy="2.204437436465868" r="0.5" fill="#000"></circle><circle cx="6.484065037588058" cy="-8.941862255052255" r="0.5" fill="#000"></circle><circle cx="1.2641426825230193" cy="11.018255001506523" r="0.5" fill="#000"></circle><circle cx="-8.408839030895857" cy="-7.300097681023346" r="0.5" fill="#000"></circle><circle cx="11.176356529256164" cy="-0.2984203929913745" r="0.5" fill="#000"></circle><circle cx="-8.071611405333968" cy="7.80058262704028" r="0.5" fill="#000"></circle><circle cx="0.6852403202559886" cy="-11.24857527438455" r="0.5" fill="#000"></circle><circle cx="7.120899089433265" cy="8.791632166902145" r="0.5" fill="#000"></circle><circle cx="-11.233015096339544" cy="-1.6790985216502075" r="0.5" fill="#000"></circle><circle cx="9.45352037999843" cy="-6.374241321518532" r="0.5" fill="#000"></circle><circle cx="-2.675223909752658" cy="11.128484938781545" r="0.5" fill="#000"></circle><circle cx="-5.565678910339401" cy="-10.051030706698851" r="0.5" fill="#000"></circle><circle cx="10.934516870884792" cy="3.665561457721844" r="0.5" fill="#000"></circle><circle cx="-10.578369068473393" cy="4.700862458226719" r="0.5" fill="#000"></circle><circle cx="4.641997707416566" cy="-10.65137818708637" r="0.5" fill="#000"></circle><circle cx="3.7859826792946603" cy="11.030246377669034" r="0.5" fill="#000"></circle><circle cx="-10.280077418295908" cy="-5.596428171060766" r="0.5" fill="#000"></circle><circle cx="11.401928511524074" cy="-2.8277245654579533" r="0.5" fill="#000"></circle><circle cx="-6.520825281569298" cy="9.822364157739555" r="0.5" fill="#000"></circle><circle cx="-1.8332169700837717" cy="-11.68928207977705" r="0.5" fill="#000"></circle><circle cx="9.280722655858902" cy="7.407306324503346" r="0.5" fill="#000"></circle><circle cx="-11.888815569392266" cy="0.8099779978345365" r="0.5" fill="#000"></circle><circle cx="8.24820078125853" cy="-8.658359190519077" r="0.5" fill="#000"></circle><circle cx="-0.23414337301322077" cy="11.997715485911224" r="0.5" fill="#000"></circle><circle cx="-7.959183270966802" cy="-9.036116514253354" r="0.5" fill="#000"></circle><circle cx="12.013877150386914" cy="1.2910289754343953" r="0.5" fill="#000"></circle><circle cx="-9.764004231067029" cy="7.187782785790425" r="0.5" fill="#000"></circle><circle cx="2.352355954627477" cy="-11.935929853292897" r="0.5" fill="#000"></circle><circle cx="6.349393256509065" cy="10.425219675105039" r="0.5" fill="#000"></circle><circle cx="-11.763256111987173" cy="-3.409663567538061" r="0.5" fill="#000"></circle><circle cx="11.01358300591251" cy="-5.449861408501611" r="0.5" fill="#000"></circle><circle cx="-4.454421740717752" cy="11.496004825843672" r="0.5" fill="#000"></circle><circle cx="-4.4956033198336085" cy="-11.523434852104689" r="0.5" fill="#000"></circle><circle cx="11.135098172654414" cy="5.478100828329863" r="0.5" fill="#000"></circle><circle cx="-11.94968854435477" cy="3.49355745521902" r="0.5" fill="#000"></circle><circle cx="6.472241998426792" cy="-10.682232140980664" r="0.5" fill="#000"></circle><circle cx="2.451132937028792" cy="12.287878064377615" r="0.5" fill="#000"></circle><circle cx="-10.139870645376446" cy="-7.428527666707117" r="0.5" fill="#000"></circle><circle cx="12.534201278516905" cy="-1.3761534469764474" r="0.5" fill="#000"></circle><circle cx="-8.338851392891748" cy="9.511233224312575" r="0.5" fill="#000"></circle><circle cx="-0.2767971910205807" cy="-12.685558060843958" r="0.5" fill="#000"></circle><circle cx="8.800276373951261" cy="9.195386655387322" r="0.5" fill="#000"></circle><circle cx="-12.739582950517496" cy="-0.8384666045132124" r="0.5" fill="#000"></circle><circle cx="9.990653925547386" cy="-8.011668623947486" r="0.5" fill="#000"></circle><circle cx="-1.9609441658858504" cy="12.69467203114276" r="0.5" fill="#000"></circle><circle cx="-7.150759514042692" cy="-10.717585473059122" r="0.5" fill="#000"></circle><circle cx="12.550003765659229" cy="3.0817860863368116" r="0.5" fill="#000"></circle><circle cx="-11.369587349136625" cy="6.223542681652664" r="0.5" fill="#000"></circle><circle cx="4.192058130750005" cy="-12.30555356854834" r="0.5" fill="#000"></circle><circle cx="5.236613320817974" cy="11.94059801384469" r="0.5" fill="#000"></circle><circle cx="-11.962101947507671" cy="-5.282813360079382" r="0.5" fill="#000"></circle><circle cx="12.425143098243892" cy="-4.197120320906011" r="0.5" fill="#000"></circle><circle cx="-6.345164990612189" cy="11.521236098696589" r="0.5" fill="#000"></circle><circle cx="-3.112713439533067" cy="-12.818385820506037" r="0.5" fill="#000"></circle><circle cx="10.985344892943733" cy="7.370359393074061" r="0.5" fill="#000"></circle><circle cx="-13.116172607925794" cy="1.9914859073307696" r="0.5" fill="#000"></circle><circle cx="8.349848631668435" cy="-10.357607244350636" r="0.5" fill="#000"></circle><circle cx="0.841912902442534" cy="13.315073513304416" r="0.5" fill="#000"></circle><circle cx="-9.641973907143555" cy="-9.275361943016717" r="0.5" fill="#000"></circle><circle cx="13.412417054355766" cy="0.3272136305635703" r="0.5" fill="#000"></circle><circle cx="-10.138975559685724" cy="8.843142801068833" r="0.5" fill="#000"></circle><circle cx="1.506853309399294" cy="-13.406319148220826" r="0.5" fill="#000"></circle><circle cx="7.966528019351101" cy="10.93318029289254" r="0.5" fill="#000"></circle><circle cx="-13.295705859584572" cy="-2.687788253454588" r="0.5" fill="#000"></circle><circle cx="11.650946303403224" cy="-7.018222726247352" r="0.5" fill="#000"></circle><circle cx="-3.8606960718312986" cy="13.080329729825099" r="0.5" fill="#000"></circle><circle cx="-6.004956202652739" cy="-12.285784509107362" r="0.5" fill="#000"></circle><circle cx="12.760779505787932" cy="5.016224317618053" r="0.5" fill="#000"></circle><circle cx="-12.831804101732795" cy="4.934045347861475" r="0.5" fill="#000"></circle><circle cx="6.145065810213879" cy="-12.338483139678898" r="0.5" fill="#000"></circle><circle cx="3.8133409931174707" cy="13.283765673565982" r="0.5" fill="#000"></circle><circle cx="-11.815703985889034" cy="-7.238034216404754" r="0.5" fill="#000"></circle><circle cx="13.637129487851087" cy="-2.65116942717404" r="0.5" fill="#000"></circle><circle cx="-8.286139275041338" cy="11.195530175682498" r="0.5" fill="#000"></circle><circle cx="-1.4562695760262434" cy="-13.888098463142473" r="0.5" fill="#000"></circle><circle cx="10.481857206406291" cy="9.280661048896707" r="0.5" fill="#000"></circle><circle cx="-14.03365548237844" cy="0.23772631724214313" r="0.5" fill="#000"></circle><circle cx="10.213222591372217" cy="-9.679363837519704" r="0.5" fill="#000"></circle><circle cx="-0.9950995559696502" cy="14.071594681261574" r="0.5" fill="#000"></circle><circle cx="-8.793481440958612" cy="-11.075860424703649" r="0.5" fill="#000"></circle><circle cx="14.000546417440038" cy="2.2326441752117474" r="0.5" fill="#000"></circle><circle cx="-11.861092240202133" cy="7.830357007788133" r="0.5" fill="#000"></circle><circle cx="3.4652156696132463" cy="-13.81999567160087" r="0.5" fill="#000"></circle><circle cx="6.7968100659471755" cy="12.561981250083093" r="0.5" fill="#000"></circle><circle cx="-13.530293683500537" cy="-4.683070876916717" r="0.5" fill="#000"></circle><circle cx="13.172196643891924" cy="-5.700283815271156" r="0.5" fill="#000"></circle><circle cx="-5.876493081678395" cy="13.13266267978379" r="0.5" fill="#000"></circle><circle cx="-4.548790834919022" cy="-13.686069630838384" r="0.5" fill="#000"></circle><circle cx="12.629193605736116" cy="7.0358701571898" r="0.5" fill="#000"></circle><circle cx="-14.09864458192382" cy="3.3508537647277445" r="0.5" fill="#000"></circle><circle cx="8.151772480467935" cy="-12.022836829412833" r="0.5" fill="#000"></circle><circle cx="2.1154414055485504" cy="14.405724822433989" r="0.5" fill="#000"></circle><circle cx="-11.317385843547497" cy="-9.215029987377724" r="0.5" fill="#000"></circle><circle cx="14.60391266604287" cy="-0.8519007234370854" r="0.5" fill="#000"></circle><circle cx="-10.216807738120059" cy="10.517454047548297" r="0.5" fill="#000"></circle><circle cx="0.4301147208993347" cy="-14.690643325833818" r="0.5" fill="#000"></circle><circle cx="9.628444748656088" cy="11.148679371211504" r="0.5" fill="#000"></circle><circle cx="-14.664212384950286" cy="-1.7207193638332434" r="0.5" fill="#000"></circle><circle cx="12.002697837394942" cy="-8.656514577137543" r="0.5" fill="#000"></circle><circle cx="-3.0098726701374106" cy="14.523796559769071" r="0.5" fill="#000"></circle><circle cx="-7.608530564955545" cy="-12.77146282311221" r="0.5" fill="#000"></circle><circle cx="14.269467541128785" cy="4.287457998939698" r="0.5" fill="#000"></circle><circle cx="-13.448184296185746" cy="6.492021190339963" r="0.5" fill="#000"></circle><circle cx="5.543362680574733" cy="-13.90219875385226" r="0.5" fill="#000"></circle><circle cx="5.3151217412142975" cy="14.026741634323741" r="0.5" fill="#000"></circle><circle cx="-13.423864931044745" cy="-6.767558667131527" r="0.5" fill="#000"></circle><circle cx="14.501737829264663" cy="-4.0865143987601735" r="0.5" fill="#000"></circle><circle cx="-7.950183110651206" cy="12.837234457121843" r="0.5" fill="#000"></circle><circle cx="-2.8153634874575273" cy="-14.868548296101103" r="0.5" fill="#000"></circle><circle cx="12.145954491635296" cy="9.081618219630485" r="0.5" fill="#000"></circle><circle cx="-15.123363857937804" cy="1.5112463797874087" r="0.5" fill="#000"></circle><circle cx="10.152569746278889" cy="-11.35452894429983" r="0.5" fill="#000"></circle><circle cx="0.184080581823703" cy="15.263227520396708" r="0.5" fill="#000"></circle><circle cx="-10.468289429820791" cy="-11.154143463910723" r="0.5" fill="#000"></circle><circle cx="15.286064698174382" cy="1.1559524398637449" r="0.5" fill="#000"></circle><circle cx="-12.077919006309799" cy="9.4933593883841" r="0.5" fill="#000"></circle><circle cx="2.498486100095322" cy="-15.190706606594391" r="0.5" fill="#000"></circle><circle cx="8.436611614021194" cy="12.916020458104063" r="0.5" fill="#000"></circle><circle cx="-14.976906584363974" cy="-3.833049590500371" r="0.5" fill="#000"></circle><circle cx="13.661183107733745" cy="-7.305619487556837" r="0.5" fill="#000"></circle><circle cx="-5.149150193052851" cy="14.64534916925451" r="0.5" fill="#000"></circle><circle cx="-6.10860226336347" cy="-14.306815801848805" r="0.5" fill="#000"></circle><circle cx="14.1976518056299" cy="6.4363563610239956" r="0.5" fill="#000"></circle><circle cx="-14.84705837196736" cy="4.854364809055238" r="0.5" fill="#000"></circle><circle cx="7.684380906393882" cy="-13.636359121314207" r="0.5" fill="#000"></circle><circle cx="3.5522322444078713" cy="15.27683364057451" r="0.5" fill="#000"></circle><circle cx="-12.96492977056335" cy="-8.883163628142857" r="0.5" fill="#000"></circle><circle cx="15.591893554524878" cy="-2.2119799692505375" r="0.5" fill="#000"></circle><circle cx="-10.022952716082933" cy="12.187715899673972" r="0.5" fill="#000"></circle><circle cx="-0.8437596102790669" cy="-15.788859037943865" r="0.5" fill="#000"></circle><circle cx="11.309935351298572" cy="11.094384270857343" r="0.5" fill="#000"></circle><circle cx="-15.86525320485326" cy="-0.5419785474475538" r="0.5" fill="#000"></circle><circle cx="12.088559291891174" cy="-10.33763678247749" r="0.5" fill="#000"></circle><circle cx="-1.9345660469870045" cy="15.819527622841496" r="0.5" fill="#000"></circle><circle cx="-9.27765792937819" cy="-12.997117501409534" r="0.5" fill="#000"></circle><circle cx="15.651081372981421" cy="3.3231990395271263" r="0.5" fill="#000"></circle></svg>