<svg xmlns="http://www.w3.org/2000/svg" xmlns:xlink="http://www.w3.org/1999/xlink" width="384" height="384" viewBox="0 0 24 24"><defs><linearGradient id="b"><stop offset="0" stop-color="#f50"/><stop offset="1" stop-color="#5f0"/></linearGradient><linearGradient id="d"><stop offset="0" stop-color="#0af"/><stop offset="1" stop-color="#5f0"/></linearGradient><linearGradient id="a"><stop offset="0" stop-color="#f50"/><stop offset="1" stop-color="#f0a"/></linearGradient><linearGradient id="c"><stop offset="0" stop-color="#0af"/><stop offset="1" stop-color="#f0a"/></linearGradient><linearGradient xlink:href="#a" id="g" x1="14" y1="2" x2="22" y2="10" gradientUnits="userSpaceOnUse"/><linearGradient xlink:href="#b" id="h" x1="14" y1="22" x2="22" y2="14" gradientUnits="userSpaceOnUse"/><linearGradient xlink:href="#c" id="f" x1="10" y1="2" x2="2" y2="10" gradientUnits="userSpaceOnUse"/><linearGradient xlink:href="#d" id="i" x1="10" y1="22" x2="2" y2="14" gradientUnits="userSpaceOnUse"/><linearGradient xlink:href="#b" id="e" x1="224" y1="256" x2="256" y2="224" gradientUnits="userSpaceOnUse"/><linearGradient xlink:href="#d" id="j" gradientUnits="userSpaceOnUse" x1="256" y1="224" x2="224" y2="256"/><linearGradient xlink:href="#c" id="k" gradientUnits="userSpaceOnUse" x1="224" y1="256" x2="256" y2="224"/><linearGradient xlink:href="#a" id="l" gradientUnits="userSpaceOnUse" x1="256" y1="224" x2="224" y2="256"/></defs><path fill="#fff" paint-order="stroke fill markers" d="M0 0h24v24H0z"/><g fill="none" stroke-width="12"><path d="M16.273 13.727C15.663 13.297 14.63 13 13 13" stroke="#5f0" stroke-linecap="round" stroke-width=".75"/><path d="M13 13c0 1.63.297 2.663.727 3.273" stroke="#f50" stroke-linecap="round" stroke-width=".75"/><path transform="scale(.0625)" d="M219.637 260.363c12.114 17.174 30.883 13.05 42.329 1.603 11.446-11.446 15.57-30.215-1.603-42.33" stroke="url(#e)"/></g><path d="M0 11c4 0 11-7 11-11" fill="none" stroke="url(#f)" stroke-width=".75"/><path d="M13 0c0 4 7 11 11 11" fill="none" stroke="url(#g)" stroke-width=".75"/><path d="M24 13c-4 0-11 7-11 11" fill="none" stroke="url(#h)" stroke-width=".75"/><path d="M11 24c0-4-7-11-11-11" fill="none" stroke="url(#i)" stroke-width=".75"/><g fill="none" stroke-width="12"><path d="M10.273 16.273c.43-.61.727-1.643.727-3.273" stroke="#0af" stroke-linecap="round" stroke-width=".75"/><path d="M11 13c-1.63 0-2.663.297-3.273.727" stroke="#5f0" stroke-linecap="round" stroke-width=".75"/><path d="M219.637 260.363c12.114 17.174 30.883 13.05 42.329 1.603 11.446-11.446 15.57-30.215-1.603-42.33" transform="rotate(90 12 12) scale(.0625)" stroke="url(#j)"/></g><g fill="none" stroke-width="12"><path d="M7.727 10.273c.61.43 1.643.727 3.273.727" stroke="#f0a" stroke-linecap="round" stroke-width=".75"/><path d="M11 11c0-1.63-.297-2.663-.727-3.273" stroke="#0af" stroke-linecap="round" stroke-width=".75"/><path transform="rotate(180 12 12) scale(.0625)" d="M219.637 260.363c12.114 17.174 30.883 13.05 42.329 1.603 11.446-11.446 15.57-30.215-1.603-42.33" stroke="url(#k)"/></g><g fill="none" stroke-width="12"><path d="M13.727 7.727C13.297 8.337 13 9.37 13 11" stroke="#f50" stroke-linecap="round" stroke-width=".75"/><path d="M13 11c1.63 0 2.663-.297 3.273-.727" stroke="#f0a" stroke-linecap="round" stroke-width=".75"/><path d="M219.637 260.363c12.114 17.174 30.883 13.05 42.329 1.603 11.446-11.446 15.57-30.215-1.603-42.33" transform="matrix(0 -.0625 .0625 0 0 24)" stroke="url(#l)"/></g><path style="mix-blend-mode:darken" d="M0 11h24" fill="none" stroke="#f0a" stroke-width=".75"/><path d="M0 13h24" style="mix-blend-mode:darken" fill="none" stroke="#5f0" stroke-width=".75"/><path d="M13 0v24" style="mix-blend-mode:darken" fill="none" stroke="#f50" stroke-width=".75"/><path style="mix-blend-mode:darken" d="M11 0v24" fill="none" stroke="#0af" stroke-width=".75"/></svg>