<svg xmlns="http://www.w3.org/2000/svg" xmlns:xlink="http://www.w3.org/1999/xlink" width="384" height="384" viewBox="0 0 24 24"><defs><linearGradient id="c"><stop offset="0" stop-color="#0af"/><stop offset="1" stop-color="#f0a"/></linearGradient><linearGradient id="d"><stop offset="0" stop-color="#f50"/><stop offset="1" stop-color="#f0a"/></linearGradient><linearGradient id="b"><stop offset="0" stop-color="#f50"/><stop offset="1" stop-color="#5f0"/></linearGradient><linearGradient id="a"><stop offset="0" stop-color="#0af"/><stop offset="1" stop-color="#5f0"/></linearGradient><linearGradient xlink:href="#a" id="e" x1="13" y1="13" x2="17" y2="16" gradientUnits="userSpaceOnUse" gradientTransform="translate(0 1)"/><linearGradient xlink:href="#b" id="f" gradientUnits="userSpaceOnUse" x1="13" y1="13" x2="17" y2="16" gradientTransform="matrix(1 0 0 -1 0 33)"/><linearGradient xlink:href="#a" id="g" gradientUnits="userSpaceOnUse" x1="13" y1="13" x2="17" y2="16" gradientTransform="rotate(-180 12 16.5)"/><linearGradient xlink:href="#b" id="h" gradientUnits="userSpaceOnUse" gradientTransform="matrix(-1 0 0 1 24 1)" x1="13" y1="13" x2="17" y2="16"/><linearGradient xlink:href="#c" id="i" gradientUnits="userSpaceOnUse" x1="13" y1="13" x2="17" y2="16" gradientTransform="matrix(1 0 0 -1 0 23)"/><linearGradient xlink:href="#d" id="j" gradientUnits="userSpaceOnUse" gradientTransform="translate(0 -9)" x1="13" y1="13" x2="17" y2="16"/><linearGradient xlink:href="#c" id="k" gradientUnits="userSpaceOnUse" gradientTransform="matrix(-1 0 0 1 24 -9)" x1="13" y1="13" x2="17" y2="16"/><linearGradient xlink:href="#d" id="l" gradientUnits="userSpaceOnUse" gradientTransform="rotate(-180 12 11.5)" x1="13" y1="13" x2="17" y2="16"/></defs><path fill="#fff" paint-order="stroke fill markers" d="M0 0h24v24H0z"/><path style="mix-blend-mode:darken" d="M0 11h24" fill="none" stroke="#f0a" stroke-width=".75" stroke-linecap="round"/><path d="M0 13h24" style="mix-blend-mode:darken" fill="none" stroke="#5f0" stroke-width=".75" stroke-linecap="round"/><path d="M13 0v4c0 2-2 4-2 6v4c0 2 2 4 2 6v4" style="mix-blend-mode:darken" fill="none" stroke="#f50" stroke-width=".75" stroke-linecap="round"/><path style="mix-blend-mode:darken" d="M11 0v4c0 2 2 4 2 6v4c0 2-2 4-2 6v4" fill="none" stroke="#0af" stroke-width=".75" stroke-linecap="round"/><path style="mix-blend-mode:darken" d="M13 14c0 2 2 3 4 3" fill="none" stroke="url(#e)" stroke-width=".75" stroke-linecap="round"/><path d="M13 20c0-2 2-3 4-3" style="mix-blend-mode:darken" fill="none" stroke="url(#f)" stroke-width=".75" stroke-linecap="round"/><path style="mix-blend-mode:darken" d="M23 13c-2 0-4 4-6 4M1 13c2 0 4 4 6 4" fill="none" stroke="#5f0" stroke-width=".75" stroke-linecap="round"/><path d="M23 11c-2 0-4-4-6-4M1 11c2 0 4-4 6-4" style="mix-blend-mode:darken" fill="none" stroke="#f0a" stroke-width=".75" stroke-linecap="round"/><path d="M11 20c0-2-2-3-4-3" style="mix-blend-mode:darken" fill="none" stroke="url(#g)" stroke-width=".75" stroke-linecap="round"/><path style="mix-blend-mode:darken" d="M11 14c0 2-2 3-4 3" fill="none" stroke="url(#h)" stroke-width=".75" stroke-linecap="round"/><path d="M13 10c0-2 2-3 4-3" style="mix-blend-mode:darken" fill="none" stroke="url(#i)" stroke-width=".75" stroke-linecap="round"/><path style="mix-blend-mode:darken" d="M13 4c0 2 2 3 4 3" fill="none" stroke="url(#j)" stroke-width=".75" stroke-linecap="round"/><path style="mix-blend-mode:darken" d="M11 4c0 2-2 3-4 3" fill="none" stroke="url(#k)" stroke-width=".75" stroke-linecap="round"/><path d="M11 10c0-2-2-3-4-3" style="mix-blend-mode:darken" fill="none" stroke="url(#l)" stroke-width=".75" stroke-linecap="round"/></svg>