<svg xmlns="http://www.w3.org/2000/svg" xmlns:xlink="http://www.w3.org/1999/xlink" width="384" height="384" viewBox="0 0 24 24"><defs><linearGradient id="d"><stop offset="0" stop-color="#f50"/><stop offset="1" stop-color="#5f0"/></linearGradient><linearGradient id="b"><stop offset="0" stop-color="#0af"/><stop offset="1" stop-color="#5f0"/></linearGradient><linearGradient id="a"><stop offset="0" stop-color="#f50"/><stop offset="1" stop-color="#f0a"/></linearGradient><linearGradient id="c"><stop offset="0" stop-color="#0af"/><stop offset="1" stop-color="#f0a"/></linearGradient><linearGradient xlink:href="#a" id="g" x1="13" y1="4" x2="20" y2="11" gradientUnits="userSpaceOnUse"/><linearGradient xlink:href="#b" id="h" x1="13" y1="8" x2="16" y2="11" gradientUnits="userSpaceOnUse"/><linearGradient xlink:href="#c" id="j" x1="13" y1="16" x2="16" y2="13" gradientUnits="userSpaceOnUse"/><linearGradient xlink:href="#d" id="i" x1="13" y1="20" x2="20" y2="13" gradientUnits="userSpaceOnUse"/><linearGradient xlink:href="#d" id="f" x1="11" y1="8" x2="8" y2="11" gradientUnits="userSpaceOnUse"/><linearGradient xlink:href="#c" id="e" x1="11" y1="4" x2="4" y2="11" gradientUnits="userSpaceOnUse"/><linearGradient xlink:href="#a" id="l" x1="11" y1="16" x2="8" y2="13" gradientUnits="userSpaceOnUse"/><linearGradient xlink:href="#b" id="k" x1="11" y1="20" x2="4" y2="13" gradientUnits="userSpaceOnUse"/></defs><path fill="#fff" paint-order="stroke fill markers" d="M0 0h24v24H0z"/><path style="mix-blend-mode:darken" d="M0 11h2c1 0 3 2 4 2h12c1 0 3-2 4-2h2" fill="none" stroke="#f0a" stroke-width=".75"/><path d="M0 13h2c1 0 3-2 4-2h12c1 0 3 2 4 2h2" style="mix-blend-mode:darken" fill="none" stroke="#5f0" stroke-width=".75"/><path d="M13 0v2c0 1-2 3-2 4v12c0 1 2 3 2 4v2" style="mix-blend-mode:darken" fill="none" stroke="#f50" stroke-width=".75"/><path style="mix-blend-mode:darken" d="M11 0v2c0 1 2 3 2 4v12c0 1-2 3-2 4v2" fill="none" stroke="#0af" stroke-width=".75"/><path d="M2 11c1 0 9-8 9-9" fill="none" stroke="url(#e)" stroke-width=".75"/><path d="M6 11c1 0 5-4 5-5" fill="none" stroke="url(#f)" stroke-width=".75"/><path d="M13 2c0 1 8 9 9 9" fill="none" stroke="url(#g)" stroke-width=".75"/><path d="M13 6c0 1 4 5 5 5" fill="none" stroke="url(#h)" stroke-width=".75"/><path d="M22 13c-1 0-9 8-9 9" fill="none" stroke="url(#i)" stroke-width=".75"/><path d="M18 13c-1 0-5 4-5 5" fill="none" stroke="url(#j)" stroke-width=".75"/><path d="M11 22c0-1-8-9-9-9" fill="none" stroke="url(#k)" stroke-width=".75"/><path d="M11 18c0-1-4-5-5-5" fill="none" stroke="url(#l)" stroke-width=".75"/></svg>