<svg xmlns="http://www.w3.org/2000/svg" xmlns:xlink="http://www.w3.org/1999/xlink" width="384" height="384" viewBox="0 0 24 24"><defs><linearGradient id="h"><stop offset="0" stop-color="#8055d4"/><stop offset="1" stop-color="#2ad57f"/></linearGradient><linearGradient id="g"><stop offset="0" stop-color="#a9aa00"/><stop offset="1" stop-color="#2ad57f"/></linearGradient><linearGradient id="f"><stop offset="0" stop-color="#a9aa00"/><stop offset="1" stop-color="#ff2a55"/></linearGradient><linearGradient id="e"><stop offset="0" stop-color="#8055d4"/><stop offset="1" stop-color="#ff2a55"/></linearGradient><linearGradient id="c"><stop offset="0" stop-color="#f50"/><stop offset="1" stop-color="#5f0"/></linearGradient><linearGradient id="d"><stop offset="0" stop-color="#0af"/><stop offset="1" stop-color="#5f0"/></linearGradient><linearGradient id="b"><stop offset="0" stop-color="#f50"/><stop offset="1" stop-color="#f0a"/></linearGradient><linearGradient id="a"><stop offset="0" stop-color="#0af"/><stop offset="1" stop-color="#f0a"/></linearGradient><linearGradient xlink:href="#a" id="i" x1="9" y1="4" x2="4" y2="9" gradientUnits="userSpaceOnUse"/><linearGradient xlink:href="#b" id="k" gradientUnits="userSpaceOnUse" x1="9" y1="4" x2="4" y2="9" gradientTransform="matrix(-1 0 0 1 24 0)"/><linearGradient xlink:href="#c" id="l" gradientUnits="userSpaceOnUse" gradientTransform="rotate(180 12 12)" x1="9" y1="4" x2="4" y2="9"/><linearGradient xlink:href="#d" id="m" gradientUnits="userSpaceOnUse" gradientTransform="matrix(1 0 0 -1 0 24)" x1="9" y1="4" x2="4" y2="9"/><linearGradient xlink:href="#e" id="j" x1="8" y1="4" x2="16" y2="4" gradientUnits="userSpaceOnUse"/><linearGradient xlink:href="#f" id="n" gradientUnits="userSpaceOnUse" x1="8" y1="4" x2="16" y2="4" gradientTransform="matrix(0 -1 -1 0 24 24)"/><linearGradient xlink:href="#g" id="o" gradientUnits="userSpaceOnUse" gradientTransform="rotate(180 12 12)" x1="8" y1="4" x2="16" y2="4"/><linearGradient xlink:href="#h" id="p" gradientUnits="userSpaceOnUse" gradientTransform="matrix(0 1 1 0 0 0)" x1="8" y1="4" x2="16" y2="4"/></defs><path fill="#0af" paint-order="stroke fill markers" d="M37 4h2v2h-2z"/><path fill="#fff" paint-order="stroke fill markers" d="M0 0h24v24H0z"/><path style="mix-blend-mode:darken" fill="#f0a" paint-order="stroke fill markers" d="M28 0h4v4h-4z"/><path style="mix-blend-mode:darken" fill="#f50" paint-order="stroke fill markers" d="M24 0h4v4h-4z"/><path style="mix-blend-mode:darken" fill="#5f0" paint-order="stroke fill markers" d="M24 4h4v4h-4z"/><path style="mix-blend-mode:darken" fill="#0af" paint-order="stroke fill markers" d="M28 4h4v4h-4z"/><path style="mix-blend-mode:darken" d="M2 11c1 0 3 0 5-2l2-2c2-2 2-4.5 2-5" fill="none" stroke="url(#i)" stroke-width=".75"/><path style="mix-blend-mode:darken" d="M0 11h24" fill="none" stroke="#f0a" stroke-width=".75"/><path d="M0 13h24" style="mix-blend-mode:darken" fill="none" stroke="#5f0" stroke-width=".75"/><path d="M13 0v24" style="mix-blend-mode:darken" fill="none" stroke="#f50" stroke-width=".75"/><path style="mix-blend-mode:darken" d="M11 0v24" fill="none" stroke="#0af" stroke-width=".75"/><path style="mix-blend-mode:darken" d="M16 8l-1-1c-2-2-4-2-6 0L8 8" fill="none" stroke="url(#j)" stroke-width=".75"/><path d="M22 11c-1 0-3 0-5-2l-2-2c-2-2-2-4.5-2-5" style="mix-blend-mode:darken" fill="none" stroke="url(#k)" stroke-width=".75"/><path style="mix-blend-mode:darken" d="M22 13c-1 0-3 0-5 2l-2 2c-2 2-2 4.5-2 5" fill="none" stroke="url(#l)" stroke-width=".75"/><path d="M2 13c1 0 3 0 5 2l2 2c2 2 2 4.5 2 5" style="mix-blend-mode:darken" fill="none" stroke="url(#m)" stroke-width=".75"/><path fill="#f50" paint-order="stroke fill markers" d="M37 6h2v2h-2z"/><path fill="#f0a" fill-opacity=".502" paint-order="stroke fill markers" d="M37 5h2v2h-2z"/><path fill="#5f0" fill-opacity=".502" paint-order="stroke fill markers" d="M37 3h2v2h-2zM37 7h2v2h-2z"/><path d="M16 8l1 1c2 2 2 4 0 6l-1 1" style="mix-blend-mode:darken" fill="none" stroke="url(#n)" stroke-width=".75"/><path style="mix-blend-mode:darken" d="M8 16l1 1c2 2 4 2 6 0l1-1" fill="none" stroke="url(#o)" stroke-width=".75"/><path d="M8 16l-1-1c-2-2-2-4 0-6l1-1" style="mix-blend-mode:darken" fill="none" stroke="url(#p)" stroke-width=".75"/></svg>