<svg xmlns="http://www.w3.org/2000/svg" xmlns:xlink="http://www.w3.org/1999/xlink" width="384" height="384" viewBox="0 0 24 24"><defs><linearGradient id="d"><stop offset="0" stop-color="#f50"/><stop offset="1" stop-color="#5f0"/></linearGradient><linearGradient id="b"><stop offset="0" stop-color="#0af"/><stop offset="1" stop-color="#5f0"/></linearGradient><linearGradient id="a"><stop offset="0" stop-color="#f50"/><stop offset="1" stop-color="#f0a"/></linearGradient><linearGradient id="c"><stop offset="0" stop-color="#0af"/><stop offset="1" stop-color="#f0a"/></linearGradient><linearGradient xlink:href="#a" id="g" x1="15" y1="5" x2="19" y2="9" gradientUnits="userSpaceOnUse"/><linearGradient xlink:href="#b" id="h" x1="17" y1="1" x2="23" y2="7" gradientUnits="userSpaceOnUse" gradientTransform="translate(-2 2)"/><linearGradient xlink:href="#c" id="j" x1="15" y1="22" x2="22" y2="15" gradientUnits="userSpaceOnUse" gradientTransform="translate(-2 -2)"/><linearGradient xlink:href="#d" id="i" x1="15" y1="20" x2="20" y2="15" gradientUnits="userSpaceOnUse"/><linearGradient xlink:href="#d" id="f" x1="9" y1="2" x2="2" y2="9" gradientUnits="userSpaceOnUse" gradientTransform="translate(2 2)"/><linearGradient xlink:href="#c" id="e" x1="9" y1="4" x2="4" y2="9" gradientUnits="userSpaceOnUse"/><linearGradient xlink:href="#a" id="l" x1="9" y1="22" x2="2" y2="15" gradientUnits="userSpaceOnUse" gradientTransform="translate(2 -2)"/><linearGradient xlink:href="#b" id="k" x1="9" y1="20" x2="4" y2="15" gradientUnits="userSpaceOnUse"/></defs><path fill="#fff" paint-order="stroke fill markers" d="M0 0h24v24H0z"/><path style="mix-blend-mode:darken" d="M0 11h24" fill="none" stroke="#f0a" stroke-width=".75"/><path d="M0 13h24" style="mix-blend-mode:darken" fill="none" stroke="#5f0" stroke-width=".75"/><path d="M13 0v24" style="mix-blend-mode:darken" fill="none" stroke="#f50" stroke-width=".75"/><path style="mix-blend-mode:darken" d="M11 0v24" fill="none" stroke="#0af" stroke-width=".75"/><path style="mix-blend-mode:darken" d="M2 11c3 0 9-6 9-9" fill="none" stroke="url(#e)" stroke-width=".75"/><path style="mix-blend-mode:darken" d="M2 13c3 0 11-8 11-11" fill="none" stroke="url(#f)" stroke-width=".75"/><path d="M13 2c0 3 6 9 9 9" style="mix-blend-mode:darken" fill="none" stroke="url(#g)" stroke-width=".75"/><path d="M11 2c0 3 8 11 11 11" style="mix-blend-mode:darken" fill="none" stroke="url(#h)" stroke-width=".75"/><path style="mix-blend-mode:darken" d="M22 13c-3 0-9 6-9 9" fill="none" stroke="url(#i)" stroke-width=".75"/><path style="mix-blend-mode:darken" d="M22 11c-3 0-11 8-11 11" fill="none" stroke="url(#j)" stroke-width=".75"/><path d="M11 22c0-3-6-9-9-9" style="mix-blend-mode:darken" fill="none" stroke="url(#k)" stroke-width=".75"/><path d="M13 22c0-3-8-11-11-11" style="mix-blend-mode:darken" fill="none" stroke="url(#l)" stroke-width=".75"/></svg>