<svg xmlns="http://www.w3.org/2000/svg" xmlns:xlink="http://www.w3.org/1999/xlink" width="384" height="384" viewBox="0 0 24 24"><defs><linearGradient id="a"><stop offset="0" stop-color="#f50"/><stop offset="1" stop-color="#5f0"/></linearGradient><linearGradient id="d"><stop offset="0" stop-color="#0af"/><stop offset="1" stop-color="#5f0"/></linearGradient><linearGradient id="b"><stop offset="0" stop-color="#f50"/><stop offset="1" stop-color="#f0a"/></linearGradient><linearGradient id="c"><stop offset="0" stop-color="#0af"/><stop offset="1" stop-color="#f0a"/></linearGradient><linearGradient xlink:href="#a" id="e" x1="13" y1="24" x2="13" y2="14" gradientUnits="userSpaceOnUse"/><linearGradient xlink:href="#a" id="f" x1="15" y1="8" x2="15" y2="14" gradientUnits="userSpaceOnUse"/><linearGradient xlink:href="#a" id="p" x1="6" y1="7" x2="16" y2="7" gradientUnits="userSpaceOnUse" gradientTransform="rotate(90 12 12)"/><linearGradient xlink:href="#b" id="h" x1="12" y1="14" x2="12" y2="24" gradientUnits="userSpaceOnUse" gradientTransform="rotate(-90 12 12)"/><linearGradient xlink:href="#c" id="k" x1="13" y1="24" x2="13" y2="14" gradientUnits="userSpaceOnUse" gradientTransform="rotate(-180 12 12)"/><linearGradient xlink:href="#b" id="i" x1="15" y1="14" x2="15" y2="8" gradientUnits="userSpaceOnUse" gradientTransform="rotate(-90 12 12)"/><linearGradient xlink:href="#b" id="g" x1="16" y1="7" x2="6" y2="7" gradientUnits="userSpaceOnUse"/><linearGradient xlink:href="#d" id="n" x1="13" y1="14" x2="13" y2="24" gradientUnits="userSpaceOnUse" gradientTransform="rotate(90 12 12)"/><linearGradient xlink:href="#d" id="o" x1="15" y1="14" x2="15" y2="8" gradientUnits="userSpaceOnUse" gradientTransform="rotate(90 12 12)"/><linearGradient xlink:href="#d" id="m" x1="16" y1="6" x2="6" y2="6" gradientUnits="userSpaceOnUse" gradientTransform="rotate(-180 12 12)"/><linearGradient xlink:href="#c" id="j" x1="6" y1="7" x2="16" y2="7" gradientUnits="userSpaceOnUse" gradientTransform="rotate(-90 12 12)"/><linearGradient xlink:href="#c" id="l" x1="15" y1="8" x2="15" y2="14" gradientUnits="userSpaceOnUse" gradientTransform="rotate(-180 12 12)"/></defs><path fill="#fff" paint-order="stroke fill markers" d="M0 0h24v24H0z"/><path style="mix-blend-mode:darken" d="M13 24c0-2-1-8 1-10" fill="none" stroke="url(#e)" stroke-width=".75" stroke-linecap="round"/><path style="mix-blend-mode:darken" d="M14 14c2-2 4-4 2-6" fill="none" stroke="url(#f)" stroke-width=".75" stroke-linecap="round"/><path style="mix-blend-mode:darken" d="M16 8C14 6 8 4 6 6" fill="none" stroke="url(#g)" stroke-width=".75" stroke-linecap="round"/><path style="mix-blend-mode:darken" d="M6 6c-2 2-4 5-6 5" fill="none" stroke="#f0a" stroke-width=".75" stroke-linecap="round"/><path d="M14 14c2-2 8-1 10-1" style="mix-blend-mode:darken" fill="none" stroke="#5f0" stroke-width=".75" stroke-linecap="round"/><path d="M16 8c-2-2-3-6-3-8" style="mix-blend-mode:darken" fill="none" stroke="#f50" stroke-width=".75" stroke-linecap="round"/><path d="M24 11c-2 0-8 1-10-1" style="mix-blend-mode:darken" fill="none" stroke="url(#h)" stroke-width=".75" stroke-linecap="round"/><path d="M14 10c-2-2-4-4-6-2" style="mix-blend-mode:darken" fill="none" stroke="url(#i)" stroke-width=".75" stroke-linecap="round"/><path d="M8 8c-2 2-4 8-2 10" style="mix-blend-mode:darken" fill="none" stroke="url(#j)" stroke-width=".75" stroke-linecap="round"/><path d="M6 18c2 2 5 4 5 6" style="mix-blend-mode:darken" fill="none" stroke="#0af" stroke-width=".75" stroke-linecap="round"/><path style="mix-blend-mode:darken" d="M14 10c-2-2-1-8-1-10" fill="none" stroke="#f50" stroke-width=".75" stroke-linecap="round"/><path style="mix-blend-mode:darken" d="M8 8c-2 2-6 3-8 3" fill="none" stroke="#f0a" stroke-width=".75" stroke-linecap="round"/><path style="mix-blend-mode:darken" d="M11 0c0 2 1 8-1 10" fill="none" stroke="url(#k)" stroke-width=".75" stroke-linecap="round"/><path style="mix-blend-mode:darken" d="M10 10c-2 2-4 4-2 6" fill="none" stroke="url(#l)" stroke-width=".75" stroke-linecap="round"/><path style="mix-blend-mode:darken" d="M8 16c2 2 8 4 10 2" fill="none" stroke="url(#m)" stroke-width=".75" stroke-linecap="round"/><path style="mix-blend-mode:darken" d="M18 18c2-2 4-5 6-5" fill="none" stroke="#5f0" stroke-width=".75" stroke-linecap="round"/><path d="M10 10c-2 2-8 1-10 1" style="mix-blend-mode:darken" fill="none" stroke="#f0a" stroke-width=".75" stroke-linecap="round"/><path d="M8 16c2 2 3 6 3 8" style="mix-blend-mode:darken" fill="none" stroke="#0af" stroke-width=".75" stroke-linecap="round"/><path d="M0 13c2 0 8-1 10 1" style="mix-blend-mode:darken" fill="none" stroke="url(#n)" stroke-width=".75" stroke-linecap="round"/><path d="M10 14c2 2 4 4 6 2" style="mix-blend-mode:darken" fill="none" stroke="url(#o)" stroke-width=".75" stroke-linecap="round"/><path d="M16 16c2-2 4-8 2-10" style="mix-blend-mode:darken" fill="none" stroke="url(#p)" stroke-width=".75" stroke-linecap="round"/><path d="M18 6c-2-2-5-4-5-6" style="mix-blend-mode:darken" fill="none" stroke="#f50" stroke-width=".75" stroke-linecap="round"/><path style="mix-blend-mode:darken" d="M10 14c2 2 1 8 1 10" fill="none" stroke="#0af" stroke-width=".75" stroke-linecap="round"/><path style="mix-blend-mode:darken" d="M16 16c2-2 6-3 8-3" fill="none" stroke="#5f0" stroke-width=".75" stroke-linecap="round"/></svg>