<svg xmlns="http://www.w3.org/2000/svg" xmlns:xlink="http://www.w3.org/1999/xlink" width="384" height="384" viewBox="0 0 24 24"><defs><linearGradient id="e"><stop offset="0" stop-color="#0af"/><stop offset="1" stop-color="#f50"/></linearGradient><linearGradient id="f"><stop offset="0" stop-color="#f0a"/><stop offset="1" stop-color="#5f0"/></linearGradient><linearGradient id="b"><stop offset="0" stop-color="#f50"/><stop offset="1" stop-color="#5f0"/></linearGradient><linearGradient id="d"><stop offset="0" stop-color="#0af"/><stop offset="1" stop-color="#5f0"/></linearGradient><linearGradient id="a"><stop offset="0" stop-color="#f50"/><stop offset="1" stop-color="#f0a"/></linearGradient><linearGradient id="c"><stop offset="0" stop-color="#0af"/><stop offset="1" stop-color="#f0a"/></linearGradient><linearGradient xlink:href="#a" id="h" x1="15" y1="7" x2="17" y2="9" gradientUnits="userSpaceOnUse"/><linearGradient xlink:href="#b" id="i" x1="15" y1="17" x2="17" y2="15" gradientUnits="userSpaceOnUse"/><linearGradient xlink:href="#c" id="g" x1="9" y1="7" x2="7" y2="9" gradientUnits="userSpaceOnUse"/><linearGradient xlink:href="#d" id="j" x1="9" y1="17" x2="7" y2="15" gradientUnits="userSpaceOnUse"/><linearGradient xlink:href="#e" id="k" gradientUnits="userSpaceOnUse" gradientTransform="rotate(-90 12.5 12.5)" x1="21" y1="10" x2="21" y2="14"/><linearGradient xlink:href="#e" id="l" gradientUnits="userSpaceOnUse" gradientTransform="matrix(0 1 1 0 0 -1)" x1="21" y1="10" x2="21" y2="14"/><linearGradient xlink:href="#f" id="m" gradientUnits="userSpaceOnUse" gradientTransform="matrix(-1 0 0 1 25 0)" x1="21" y1="10" x2="21" y2="14"/><linearGradient xlink:href="#f" id="n" gradientUnits="userSpaceOnUse" gradientTransform="translate(-1)" x1="21" y1="10" x2="21" y2="14"/></defs><path fill="#fff" paint-order="stroke fill markers" d="M0 0h24v24H0z"/><path style="mix-blend-mode:darken" d="M7 11c2 0 4-2 4-4" fill="none" stroke="url(#g)" stroke-width=".75"/><path d="M13 7c0 2 2 4 4 4" style="mix-blend-mode:darken" fill="none" stroke="url(#h)" stroke-width=".75"/><path style="mix-blend-mode:darken" d="M17 13c-2 0-4 2-4 4" fill="none" stroke="url(#i)" stroke-width=".75"/><path d="M11 17c0-2-2-4-4-4" style="mix-blend-mode:darken" fill="none" stroke="url(#j)" stroke-width=".75"/><path d="M11 0v1c0 1-1 1.946-1 3s1 2 1 3v10c0 1-1 2-1 3 0 1.054 1 2 1 3v1" style="mix-blend-mode:darken" fill="none" stroke="#0af" stroke-width=".75"/><path style="mix-blend-mode:darken" d="M13 24v-1c0-1 1-1.946 1-3s-1-2-1-3V7c0-1.054 1-2 1-3 0-1.054-.893-2.006-1-3V0" fill="none" stroke="#f50" stroke-width=".75"/><path d="M10 4a2 2 0 0 1 4 0" fill="none" stroke="url(#k)" stroke-width=".75" stroke-linecap="round" paint-order="stroke fill markers"/><path d="M10 20a2 2 0 0 0 4 0" fill="none" stroke="url(#l)" stroke-width=".75" stroke-linecap="round" paint-order="stroke fill markers"/><path style="mix-blend-mode:darken" d="M0 13h1c1 0 1.946 1 3 1s2-1 3-1h10c1 0 2 1 3 1 1.054 0 2-1 3-1h1" fill="none" stroke="#5f0" stroke-width=".75"/><path d="M24 11h-1c-1 0-1.946-1-3-1s-2 1-3 1H7c-1 0-2-1-3-1-1.054 0-2.006.893-3 1H0" style="mix-blend-mode:darken" fill="none" stroke="#f0a" stroke-width=".75"/><path d="M4 10a2 2 0 0 0 0 4" fill="none" stroke="url(#m)" stroke-width=".75" stroke-linecap="round" paint-order="stroke fill markers"/><path d="M20 10a2 2 0 0 1 0 4" fill="none" stroke="url(#n)" stroke-width=".75" stroke-linecap="round" paint-order="stroke fill markers"/></svg>